<?xml version="1.0" encoding="UTF-8" standalone="no"?>
<!-- Created with Inkscape (http://www.inkscape.org/) -->

<svg
   width="297mm"
   height="210mm"
   viewBox="0 0 297 210"
   version="1.1"
   id="svg5"
   xml:space="preserve"
   inkscape:version="1.2.1 (9c6d41e410, 2022-07-14, custom)"
   sodipodi:docname="arquitecture.svg"
   xmlns:inkscape="http://www.inkscape.org/namespaces/inkscape"
   xmlns:sodipodi="http://sodipodi.sourceforge.net/DTD/sodipodi-0.dtd"
   xmlns="http://www.w3.org/2000/svg"
   xmlns:svg="http://www.w3.org/2000/svg"><sodipodi:namedview
     id="namedview7"
     pagecolor="#505050"
     bordercolor="#eeeeee"
     borderopacity="1"
     inkscape:showpageshadow="0"
     inkscape:pageopacity="0"
     inkscape:pagecheckerboard="0"
     inkscape:deskcolor="#505050"
     inkscape:document-units="mm"
     showgrid="false"
     inkscape:zoom="2.3786088"
     inkscape:cx="145.04277"
     inkscape:cy="265.28112"
     inkscape:window-width="2560"
     inkscape:window-height="1403"
     inkscape:window-x="0"
     inkscape:window-y="0"
     inkscape:window-maximized="1"
     inkscape:current-layer="g11428" /><defs
     id="defs2"><marker
       style="overflow:visible"
       id="marker8627"
       refX="3"
       refY="0"
       orient="auto-start-reverse"
       inkscape:stockid="TriangleStart"
       markerWidth="6.3239999"
       markerHeight="7.3109827"
       viewBox="0 0 5.3244081 6.1553851"
       inkscape:isstock="true"
       inkscape:collect="always"
       preserveAspectRatio="xMidYMid"><path
         transform="scale(0.5)"
         style="fill:context-stroke;fill-rule:evenodd;stroke:context-stroke;stroke-width:1pt"
         d="M 5.77,0 -2.88,5 V -5 Z"
         id="path8625" /></marker><rect
       x="135.05138"
       y="75.353836"
       width="8.6032925"
       height="21.134827"
       id="rect7329" /><rect
       x="383.19733"
       y="160.18095"
       width="265.86719"
       height="156.25024"
       id="rect6777" /><rect
       x="81.614273"
       y="440.76956"
       width="65.59845"
       height="39.654026"
       id="rect5890" /><marker
       style="overflow:visible"
       id="TriangleStart"
       refX="3"
       refY="0"
       orient="auto-start-reverse"
       inkscape:stockid="TriangleStart"
       markerWidth="6.3239999"
       markerHeight="7.3109832"
       viewBox="0 0 5.3244081 6.1553851"
       inkscape:isstock="true"
       inkscape:collect="always"
       preserveAspectRatio="xMidYMid"><path
         transform="scale(0.5)"
         style="fill:context-stroke;fill-rule:evenodd;stroke:context-stroke;stroke-width:1pt"
         d="M 5.77,0 -2.88,5 V -5 Z"
         id="path135" /></marker><rect
       x="205.70207"
       y="436.4335"
       width="359.56894"
       height="70.670746"
       id="rect618" /><rect
       x="201.48677"
       y="511.68185"
       width="357.06274"
       height="130.0705"
       id="rect496" /><rect
       x="18.518295"
       y="222.66199"
       width="197.9415"
       height="130.03799"
       id="rect478" /><rect
       x="383.19733"
       y="160.18095"
       width="199.31885"
       height="151.32658"
       id="rect6791" /><rect
       x="383.19733"
       y="160.18095"
       width="265.86719"
       height="156.25024"
       id="rect7037" /><rect
       x="201.48677"
       y="511.68185"
       width="318.55875"
       height="94.669495"
       id="rect10228" /><rect
       x="205.70207"
       y="436.4335"
       width="359.56894"
       height="70.670746"
       id="rect10230" /></defs><g
     inkscape:label="Layer 1"
     inkscape:groupmode="layer"
     id="layer1"><text
       xml:space="preserve"
       transform="scale(0.26458333)"
       id="text7327"
       style="font-size:9.33332px;line-height:1.25;font-family:sans-serif;-inkscape-font-specification:'sans-serif, Normal';white-space:pre;shape-inside:url(#rect7329);display:inline" /><g
       id="g11086"
       transform="translate(1.4654879,3.2002615)"><g
         id="g10226"
         transform="translate(147.51497,61.314172)"><g
           id="g10218"
           transform="translate(14.597019,0.21204074)"
           style="stroke-width:0.705556;stroke-dasharray:none"><g
             id="g11428"
             transform="translate(-6.7050203,-8.2275276)"><g
               id="g8439"
               transform="translate(-143.55809,-64.726474)"><g
                 id="g672"><g
                   id="g660"
                   style="stroke-width:0.705556;stroke-dasharray:none"><rect
                     style="fill:none;stroke:#ccffcc;stroke-width:0.705556;stroke-dasharray:none"
                     id="rect366"
                     width="57.518681"
                     height="57.639118"
                     x="1.6237886"
                     y="24.427803" /></g><g
                   id="g657"
                   transform="translate(0,-1.1227908)"><g
                     id="g364"><path
                       d="m 36.676304,39.988848 c -0.0228,0.16378 -0.0489,0.34925 -0.0733,0.55351 -0.0238,0.19738 -0.045,0.37677 -0.0643,0.54028 -0.18944,1.60337 -0.21378,1.80949 -0.66886,2.02856 -0.85223,0.4101 -1.1356,0.72708 -1.65074,1.30254 a 20.897585,20.897585 0 0 1 -0.75909,0.81466 c -1.08903,1.10251 -2.47968,1.23295 -3.07473,1.23295 l -0.0466,-2.6e-4 -0.0185,-2.7e-4 -0.0185,2.7e-4 c -0.56673,0.005 -2.00263,-0.10028 -3.12155,-1.23269 -0.3175,-0.32147 -0.55192,-0.58368 -0.75909,-0.81466 -0.51488,-0.57546 -0.79851,-0.89244 -1.65073,-1.30254 -0.45535,-0.21907 -0.47969,-0.42519 -0.66914,-2.03015 l -0.064,-0.53869 c -0.0246,-0.20426 -0.0505,-0.39 -0.0735,-0.55351 -0.10663,-0.76094 -0.17727,-1.26338 0.29051,-1.55866 0.38259,-0.24103 1.24063,-0.99959 1.86135,-1.79943 0.11456,-0.17039 1.41419,-2.00475 4.20476,-2.00475 2.79056,0 4.08992,1.83462 4.20475,2.00502 0.62098,0.79983 1.47876,1.55839 1.86108,1.79943 0.46752,0.29501 0.39714,0.79745 0.29025,1.55839 z m -8.30633,-4.45637 a 4.5984583,4.5984583 0 0 0 -0.64214,0.32808 v 1.67825 c 0,0.17701 0.14393,0.32147 0.32094,0.32147 0.177,0 0.32094,-0.1442 0.32094,-0.32147 v -2.00633 z m 4.54237,0.32808 a 4.5947542,4.5947542 0 0 0 -0.64188,-0.32808 v 2.00633 c 0,0.17701 0.14393,0.32147 0.32094,0.32147 0.177,0 0.32094,-0.1442 0.32094,-0.32147 z m 3.1914,3.01889 c -0.40084,-0.25267 -1.31471,-1.04113 -2.00342,-1.93066 l -0.0124,-0.0175 c -0.0243,-0.0365 -0.33682,-0.49742 -0.97711,-0.94033 v 1.54808 c 0,0.2868 -0.2331,0.52043 -0.51965,0.52043 -0.28654,0 -0.51964,-0.23336 -0.51964,-0.52043 v -2.08386 c -0.48815,-0.1778 -1.06944,-0.29845 -1.75154,-0.29845 -0.6821,0 -1.26338,0.12065 -1.75154,0.29845 v 2.08359 c 0,0.28681 -0.2331,0.52044 -0.51964,0.52044 -0.28655,0 -0.51964,-0.23337 -0.51964,-0.52044 v -1.54808 c -0.64056,0.44292 -0.9533,0.90382 -0.97764,0.94086 l -0.0119,0.0169 c -0.68844,0.88952 -1.60231,1.67798 -2.00342,1.93066 -0.16007,0.10107 -0.15134,0.29898 -0.0482,1.03584 0.0233,0.16616 0.0497,0.35455 0.0749,0.5641 l 0.064,0.53975 c 0.17568,1.48616 0.19315,1.52796 0.37253,1.61422 0.94695,0.45561 1.29249,0.8419 1.81558,1.42637 0.20293,0.22648 0.43259,0.48366 0.74109,0.7956 0.97605,0.98822 2.23864,1.08162 2.73871,1.07527 l 0.0249,-2.7e-4 0.0246,2.7e-4 c 0.49821,0.007 1.76266,-0.0873 2.7387,-1.07527 a 20.552833,20.552833 0 0 0 0.7411,-0.7956 c 0.52308,-0.58447 0.86889,-0.97076 1.81584,-1.42637 0.17912,-0.0863 0.19685,-0.12806 0.37227,-1.6129 l 0.0646,-0.54107 c 0.0251,-0.20955 0.0516,-0.39794 0.0749,-0.5641 0.10345,-0.7366 0.11244,-0.9345 -0.0479,-1.03558 z m -3.51261,3.11283 c -0.80221,0 -1.4552,-0.64982 -1.4552,-1.4486 0,-0.79877 0.65272,-1.44833 1.4552,-1.44833 0.80249,0 1.45521,0.64982 1.45521,1.44833 0,0.79852 -0.65272,1.4486 -1.45521,1.4486 z m 0,-2.69796 c -0.69268,0 -1.2565,0.56065 -1.2565,1.24963 0,0.68897 0.56356,1.24963 1.2565,1.24963 0.69295,0 1.25651,-0.56066 1.25651,-1.24963 0,-0.68898 -0.56356,-1.24963 -1.25651,-1.24963 z m 0,2.19154 c -0.5244,0 -0.94959,-0.42174 -0.94959,-0.94218 0,-0.52043 0.42519,-0.94218 0.94959,-0.94218 0.52441,0 0.94959,0.42175 0.94959,0.94218 0,0.52044 -0.42518,0.94218 -0.94959,0.94218 z m -2.27091,2.04127 c -0.26723,0 -0.79137,-0.24527 -0.79137,-0.47096 h 1.58247 c 0,0.20584 -0.52414,0.47096 -0.7911,0.47096 z m 0,-5.18134 a 0.31538333,0.31538333 0 0 1 -0.31671,-0.31406 c 0,-0.1733 0.14182,-0.31406 0.31671,-0.31406 0.17462,0 0.31644,0.14076 0.31644,0.31406 0,0.1733 -0.14182,0.31406 -0.31644,0.31406 z m -2.31035,3.64649 c -0.80248,0 -1.4552,-0.64982 -1.4552,-1.4486 0,-0.79877 0.65272,-1.44833 1.4552,-1.44833 0.80222,0 1.45521,0.64982 1.45521,1.44833 0,0.79852 -0.65299,1.4486 -1.45521,1.4486 z m 0,-2.69796 c -0.69294,0 -1.2565,0.56065 -1.2565,1.24963 0,0.68897 0.56356,1.24963 1.2565,1.24963 0.69268,0 1.25651,-0.56066 1.25651,-1.24963 0,-0.68898 -0.56383,-1.24963 -1.25651,-1.24963 z m 0,2.19154 c -0.5244,0 -0.94959,-0.42174 -0.94959,-0.94218 0,-0.52043 0.42492,-0.94218 0.94959,-0.94218 0.52441,0 0.94959,0.42175 0.94959,0.94218 0,0.52044 -0.42518,0.94218 -0.94959,0.94218 z"
                       fill-rule="evenodd"
                       clip-rule="evenodd"
                       fill="#ffffff"
                       id="path236"
                       style="fill:#00ffff;fill-opacity:1;stroke-width:0.264583" /><path
                       d="m 43.996134,47.979874 -0.250825,0.409046 a 0.10451041,0.10451041 0 0 1 -0.09009,0.05027 0.10847916,0.10847916 0 0 1 -0.04165,-0.0083 c -0.08758,-0.03797 -0.15928,-0.05702 -0.21259,-0.05702 -0.13481,0 -0.263925,0.05622 -0.3941,0.172376 -0.13269,0.118269 -0.236539,0.30943 -0.308506,0.567796 -0.05675,0.204258 -0.08546,0.633148 -0.08546,1.274233 v 1.275424 a 0.10583333,0.10583333 0 0 1 -0.105437,0.106363 h -0.49186 a 0.10609791,0.10609791 0 0 1 -0.105701,-0.106363 v -2.170377 c 0,-0.9017 0.474927,-1.459971 0.881591,-1.664361 a 1.3357489,1.3357489 0 0 1 0.588283,-0.141684 c 0.0324,0 0.05503,0.0016 0.06561,0.0024 0.16153,10e-4 0.361025,0.05662 0.512235,0.141023 0.02525,0.01429 0.0438,0.03836 0.05107,0.06628 0.0069,0.02778 0.0025,0.05808 -0.01255,0.08295 z m -3.464189,1.9431 h -3.196432 a 0.05278437,0.05278437 0 0 0 -0.05265,0.05913 c 0.03691,0.333771 0.163513,0.615288 0.375973,0.837141 0.250164,0.260879 0.55073,0.387747 0.918898,0.387747 0.176345,0 0.351102,-0.03162 0.51951,-0.0938 0.167481,-0.06204 0.310885,-0.144727 0.426508,-0.246062 0.06919,-0.06019 0.143272,-0.145521 0.220927,-0.252942 a 0.10583333,0.10583333 0 0 1 0.136525,-0.03083 l 0.41619,0.230717 a 0.10940521,0.10940521 0 0 1 0.05186,0.06826 0.10847916,0.10847916 0 0 1 -0.01508,0.08453 2.0920604,2.0920604 0 0 1 -0.315516,0.376237 1.9274896,1.9274896 0 0 1 -0.621903,0.390261 c -0.229129,0.08863 -0.49067,0.13335 -0.777743,0.13335 -0.639365,0 -1.148027,-0.216033 -1.5113,-0.642012 -0.359305,-0.421084 -0.541867,-0.904346 -0.541867,-1.436423 0,-0.500062 0.154648,-0.952367 0.459581,-1.344215 0.38854,-0.500857 0.915326,-0.754724 1.566069,-0.754724 0.668734,0 1.210468,0.259424 1.610518,0.771525 0.284163,0.361288 0.430742,0.817033 0.435504,1.354534 a 0.10847916,0.10847916 0 0 1 -0.03056,0.07594 0.104775,0.104775 0 0 1 -0.07501,0.03162 z m -0.692812,-0.703659 c -0.05371,-0.150813 -0.120782,-0.277416 -0.199231,-0.376238 -0.112051,-0.140626 -0.26326,-0.256778 -0.449263,-0.344487 a 1.39065,1.39065 0 0 0 -0.592402,-0.131895 c -0.343429,0 -0.629973,0.108082 -0.876167,0.329539 -0.136261,0.122634 -0.249502,0.298053 -0.336286,0.521626 a 0.05291666,0.05291666 0 0 0 0.04908,0.0725 h 2.354924 c 0.0172,0 0.0332,-0.0083 0.04312,-0.02262 a 0.053975,0.053975 0 0 0 0.0062,-0.04842 z m -6.148387,2.647553 c -0.312209,0 -0.604176,-0.06654 -0.867437,-0.197908 a 2.0357041,2.0357041 0 0 1 -0.436562,-0.297921 0.05172604,0.05172604 0 0 0 -0.05649,-0.0086 0.05291666,0.05291666 0 0 0 -0.03095,0.04855 v 2.51923 a 0.1063625,0.1063625 0 0 1 -0.105702,0.106759 H 31.712324 A 0.1063625,0.1063625 0 0 1 31.606623,53.930219 V 49.8178 c 0,-0.592534 0.200951,-1.098417 0.597297,-1.502833 0.406135,-0.414867 0.901832,-0.625475 1.4732,-0.625475 0.557741,0 1.041797,0.205317 1.438539,0.610261 0.396346,0.405077 0.597297,0.898922 0.597297,1.468306 0,0.580231 -0.198967,1.080029 -0.591608,1.486164 -0.393436,0.406665 -0.874713,0.612643 -1.430602,0.612643 z m 1.175676,-2.792413 c -0.123958,-0.222514 -0.292629,-0.397139 -0.501518,-0.519112 a 1.3394531,1.3394531 0 0 0 -0.687652,-0.185341 c -0.389599,0 -0.708819,0.13335 -0.975916,0.407855 -0.266964,0.275299 -0.39661,0.608674 -0.39661,1.019705 0,0.266303 0.05953,0.508529 0.177006,0.719799 0.116417,0.209946 0.286279,0.379412 0.504693,0.502576 0.220266,0.124354 0.455083,0.187325 0.697574,0.187325 0.23786,0 0.46527,-0.0631 0.675613,-0.187722 0.210344,-0.12528 0.380207,-0.302154 0.504429,-0.526521 0.125544,-0.224764 0.189177,-0.463418 0.189177,-0.709083 a 1.4376135,1.4376135 0 0 0 -0.186796,-0.709481 z m -6.183048,2.792413 c -0.312341,0 -0.604044,-0.06654 -0.867701,-0.197908 a 2.0493302,2.0493302 0 0 1 -0.436563,-0.298054 0.05159375,0.05159375 0 0 0 -0.03479,-0.01309 0.06244166,0.06244166 0 0 0 -0.02196,0.0043 0.05371041,0.05371041 0 0 0 -0.03096,0.04882 v 2.51923 a 0.1063625,0.1063625 0 0 1 -0.105701,0.10676 h -0.481012 a 0.1063625,0.1063625 0 0 1 -0.105701,-0.106759 v -4.112418 c 0,-0.592535 0.201084,-1.098418 0.597165,-1.502834 0.406135,-0.414866 0.9017,-0.625475 1.473332,-0.625475 0.557874,0 1.041797,0.205317 1.438672,0.610262 0.395817,0.40468 0.596636,0.898789 0.596636,1.468305 0,0.580364 -0.198967,1.080294 -0.591212,1.486165 -0.393303,0.406664 -0.874448,0.612642 -1.430205,0.612642 z m 1.175544,-2.792545 c -0.123958,-0.222382 -0.292365,-0.397007 -0.501254,-0.51898 a 1.3401146,1.3401146 0 0 0 -0.688048,-0.185341 c -0.389732,0 -0.708952,0.13335 -0.975652,0.407855 -0.267229,0.275299 -0.397007,0.608674 -0.397007,1.019705 0,0.265906 0.05953,0.508132 0.177139,0.719799 0.116946,0.209946 0.286676,0.379412 0.504957,0.502576 0.220001,0.124354 0.454819,0.187325 0.697574,0.187325 0.237993,0 0.465137,-0.06297 0.675217,-0.187722 0.210079,-0.124884 0.380206,-0.302022 0.504957,-0.526521 0.125412,-0.225028 0.189177,-0.463682 0.189177,-0.709083 1.32e-4,-0.248047 -0.06297,-0.486834 -0.18706,-0.709613 z m -4.345385,0.848651 H 22.31697 a 0.05265208,0.05265208 0 0 0 -0.05252,0.05913 c 0.03665,0.333639 0.163116,0.615288 0.375973,0.837141 0.250163,0.260879 0.550598,0.387747 0.918633,0.387747 0.176345,0 0.351235,-0.03162 0.519642,-0.0938 0.167481,-0.06204 0.311018,-0.144991 0.426773,-0.246062 0.06892,-0.06019 0.143404,-0.145389 0.221059,-0.252942 a 0.10583333,0.10583333 0 0 1 0.136261,-0.03083 l 0.416189,0.230717 a 0.10821458,0.10821458 0 0 1 0.05159,0.06826 0.10834687,0.10834687 0 0 1 -0.01482,0.08453 c -0.09657,0.145256 -0.202936,0.271991 -0.315648,0.376237 a 1.9359562,1.9359562 0 0 1 -0.622036,0.390261 c -0.229129,0.08863 -0.490934,0.13335 -0.777742,0.13335 -0.639498,0 -1.14816,-0.216033 -1.5113,-0.642012 -0.359306,-0.421084 -0.541736,-0.904346 -0.541736,-1.436423 0,-0.500062 0.154516,-0.952367 0.459316,-1.344215 0.388806,-0.500857 0.915591,-0.754724 1.566201,-0.754724 0.66847,0 1.210337,0.259424 1.610652,0.771525 0.284294,0.361685 0.430741,0.81743 0.435504,1.354534 a 0.10781771,0.10781771 0 0 1 -0.03056,0.07594 0.10451041,0.10451041 0 0 1 -0.07488,0.03162 z m -0.692679,-0.703659 c -0.05358,-0.150813 -0.120915,-0.277019 -0.199628,-0.376238 -0.112183,-0.140626 -0.263128,-0.256778 -0.448998,-0.344487 a 1.3917083,1.3917083 0 0 0 -0.592534,-0.131895 c -0.338932,0 -0.633545,0.110596 -0.875771,0.329539 -0.136657,0.122898 -0.249767,0.298317 -0.336682,0.521626 a 0.05344583,0.05344583 0 0 0 0.04908,0.0725 h 2.355056 a 0.05212291,0.05212291 0 0 0 0.043,-0.02262 0.05251979,0.05251979 0 0 0 0.0065,-0.04842 z m -6.108303,2.647553 c -0.312208,0 -0.604044,-0.06654 -0.867701,-0.197908 a 2.0357041,2.0357041 0 0 1 -0.436562,-0.297921 0.05159375,0.05159375 0 0 0 -0.05649,-0.0085 0.05304896,0.05304896 0 0 0 -0.03109,0.04842 v 2.51923 a 0.10623021,0.10623021 0 0 1 -0.105569,0.106759 h -0.481013 a 0.1063625,0.1063625 0 0 1 -0.105833,-0.106724 v -4.112419 c 0,-0.592534 0.201083,-1.098417 0.597297,-1.502833 0.406135,-0.414867 0.901964,-0.625475 1.473332,-0.625475 0.557609,0 1.041664,0.205317 1.438539,0.610129 0.395949,0.40468 0.597033,0.898657 0.597033,1.468438 0,0.580495 -0.198967,1.080426 -0.591477,1.486164 -0.39317,0.406665 -0.874447,0.612643 -1.430469,0.612643 z m 1.175412,-2.792545 C 19.764402,48.852205 19.59573,48.677448 19.386842,48.555343 A 1.3387916,1.3387916 0 0 0 18.69919,48.370002 c -0.389864,0 -0.709084,0.13335 -0.976048,0.407855 -0.266964,0.275299 -0.396742,0.608674 -0.396742,1.019705 0,0.265906 0.0594,0.508132 0.176741,0.719931 0.116946,0.210211 0.286676,0.37928 0.504957,0.502444 0.220266,0.124354 0.455083,0.187325 0.697839,0.187325 0.237728,0 0.465137,-0.0631 0.675216,-0.187722 0.210476,-0.12528 0.380207,-0.302419 0.504825,-0.526521 0.12528,-0.224631 0.18878,-0.463285 0.18878,-0.709083 a 1.4374812,1.4374812 0 0 0 -0.186795,-0.709613 z"
                       fill-rule="evenodd"
                       clip-rule="evenodd"
                       fill="#ffffff"
                       id="path353"
                       style="fill:#00ffff;fill-opacity:1;stroke-width:0.132291" /></g><text
                     xml:space="preserve"
                     transform="matrix(0.26458333,0,0,0.26458333,-0.78380498,-0.41047901)"
                     id="text476"
                     style="font-size:9.33332px;line-height:1.25;font-family:sans-serif;-inkscape-font-specification:'sans-serif, Normal';white-space:pre;shape-inside:url(#rect478);display:inline"
                     x="89.034508"
                     y="0"><tspan
                       x="59.20572"
                       y="242.0244"
                       id="tspan11984"><tspan
                         style="font-style:italic;font-size:21.3333px;-inkscape-font-specification:'sans-serif, Italic';text-align:center;text-anchor:middle"
                         id="tspan11980">PepperBase</tspan><tspan
                         style="font-size:21.3333px"
                         id="tspan11982">
</tspan></tspan><tspan
                       x="27.23676"
                       y="262.99774"
                       id="tspan11988"><tspan
                         style="font-size:14.6667px"
                         id="tspan11986">android application listening </tspan></tspan><tspan
                       x="42.585465"
                       y="281.33112"
                       id="tspan11992"><tspan
                         style="font-size:14.6667px"
                         id="tspan11990">for different commands</tspan></tspan></text></g></g><text
                 xml:space="preserve"
                 style="font-size:2.46944px;line-height:1.25;font-family:sans-serif;-inkscape-font-specification:'sans-serif, Normal';fill:#ccffcc;fill-opacity:1;stroke-width:0.264583"
                 x="3.7404554"
                 y="23.369469"
                 id="text7047"><tspan
                   sodipodi:role="line"
                   id="tspan7045"
                   style="font-size:3.88056px;fill:#ccffcc;fill-opacity:1;stroke-width:0.264583"
                   x="3.7404554"
                   y="23.369469">Android device</tspan><tspan
                   sodipodi:role="line"
                   style="fill:#ccffcc;fill-opacity:1;stroke-width:0.264583"
                   x="3.7404554"
                   y="27.015072"
                   id="tspan7049" /></text></g><path
               style="fill:none;stroke:#000000;stroke-width:0.264583px;stroke-linecap:butt;stroke-linejoin:miter;stroke-opacity:1"
               d="m 55.806178,82.066925 h -1.80122 -1.80122 -1.80122 -1.80122 -1.80122 -1.80123"
               id="path3504"
               sodipodi:nodetypes="ccccccc"
               transform="translate(-163.57748,-64.726474)" /><path
               style="fill:none;stroke:#000000;stroke-width:0.405694;stroke-linecap:butt;stroke-linejoin:miter;stroke-dasharray:none;stroke-dashoffset:0;stroke-opacity:1;marker-start:url(#TriangleStart);marker-end:url(#TriangleStart)"
               d="m 50.402518,82.066923 -2e-6,33.057367 m -10e-7,6.27623 -3e-6,14.91311 h 22.962547"
               id="path3700"
               sodipodi:nodetypes="ccccc"
               transform="translate(-163.57748,-64.726474)" /><text
               xml:space="preserve"
               transform="matrix(0.26458333,0,0,0.26458333,-143.42761,-65.807268)"
               id="text5888"
               style="font-style:normal;font-variant:normal;font-weight:bold;font-stretch:normal;font-size:18.6667px;line-height:1.25;font-family:sans-serif;-inkscape-font-specification:'sans-serif, Bold';font-variant-ligatures:normal;font-variant-caps:normal;font-variant-numeric:normal;font-variant-east-asian:normal;text-align:center;white-space:pre;shape-inside:url(#rect5890);display:inline;fill:#000000;fill-opacity:1"
               x="11.927989"
               y="0"><tspan
                 x="89.083361"
                 y="456.71089"
                 id="tspan11994">gRPC</tspan></text><g
               id="g11069"
               transform="translate(-163.57748,-64.726474)"><g
                 id="g648"
                 transform="translate(32.10755)"
                 style="stroke-width:0.705556;stroke-dasharray:none"><rect
                   style="fill:none;stroke:#ccffcc;stroke-width:0.705556;stroke-dasharray:none"
                   id="rect492"
                   width="116.96318"
                   height="56.537338"
                   x="41.257511"
                   y="108.04496" /><g
                   id="g639"
                   style="stroke-width:0.705556;stroke-dasharray:none"><text
                     xml:space="preserve"
                     transform="matrix(0.26458333,0,0,0.26458333,-0.90034926,-0.00921734)"
                     id="text494"
                     style="font-size:9.33332px;line-height:1.25;font-family:sans-serif;-inkscape-font-specification:'sans-serif, Normal';white-space:pre;shape-inside:url(#rect496);display:inline;stroke-width:2.66667;stroke-dasharray:none"
                     x="175.31236"
                     y="0"><tspan
                       x="299.65507"
                       y="531.04393"
                       id="tspan11998"><tspan
   style="font-style:italic;font-size:21.3333px;-inkscape-font-specification:'sans-serif, Italic';text-align:center;text-anchor:middle"
   id="tspan11996">Speech-learning:</tspan>
</tspan><tspan
                       x="215.59658"
                       y="550.87363"
                       id="tspan12002"><tspan
                         style="font-size:14.6667px"
                         id="tspan12000">Server application providing two endpoints, one for </tspan></tspan><tspan
                       x="238.96061"
                       y="569.207"
                       id="tspan12006"><tspan
                         style="font-size:14.6667px"
                         id="tspan12004">http requests (port 5003) and one for gRPC </tspan></tspan><tspan
                       x="288.45338"
                       y="587.54038"
                       id="tspan12010"><tspan
                         style="font-size:14.6667px"
                         id="tspan12008">communication (port 50051)</tspan></tspan></text><text
                     xml:space="preserve"
                     transform="matrix(0.26458333,0,0,0.26458333,-2.5681281,-0.60035627)"
                     id="text616"
                     style="font-size:9.33332px;line-height:1.25;font-family:sans-serif;-inkscape-font-specification:'sans-serif, Normal';white-space:pre;shape-inside:url(#rect618);display:inline;stroke-width:2.66667;stroke-dasharray:none"
                     x="176.14688"
                     y="0"><tspan
                       x="208.36612"
                       y="459.20696"
                       id="tspan12014"><tspan
                         style="font-size:26.6667px;text-align:center;text-anchor:middle"
                         id="tspan12012">Device serving the application </tspan></tspan><tspan
                       x="266.57955"
                       y="492.54033"
                       id="tspan12018"><tspan
                         style="font-size:26.6667px;text-align:center;text-anchor:middle"
                         id="tspan12016">(e.g a Raspberry Pi)</tspan></tspan></text></g></g><text
                 xml:space="preserve"
                 style="font-size:2.46944px;line-height:1.25;font-family:sans-serif;-inkscape-font-specification:'sans-serif, Normal';fill:#ccffcc;fill-opacity:1;stroke-width:0.264583"
                 x="75.062981"
                 y="106.54459"
                 id="text8423"><tspan
                   sodipodi:role="line"
                   id="tspan8419"
                   style="font-size:3.88056px;fill:#ccffcc;fill-opacity:1;stroke-width:0.264583"
                   x="75.062981"
                   y="106.54459">PC</tspan><tspan
                   sodipodi:role="line"
                   style="fill:#ccffcc;fill-opacity:1;stroke-width:0.264583"
                   x="75.062981"
                   y="110.1902"
                   id="tspan8421" /></text></g><path
               style="fill:none;stroke:#000000;stroke-width:0.264583px;stroke-linecap:butt;stroke-linejoin:miter;stroke-opacity:1"
               d="m 73.365061,130.90996 v 1.80122 1.80123 1.80122 1.80122 1.80122 1.80123"
               id="path6699"
               sodipodi:nodetypes="ccccccc"
               transform="translate(-163.57748,-64.726474)" /><g
               id="g8449"
               transform="translate(-137.41582,-80.452753)"><g
                 id="g7025"><text
                   xml:space="preserve"
                   transform="matrix(0.26458333,0,0,0.26458333,-14.254262,9.2520201)"
                   id="text6775"
                   style="font-size:9.33332px;line-height:1.25;font-family:sans-serif;-inkscape-font-specification:'sans-serif, Normal';white-space:pre;shape-inside:url(#rect6777);display:inline"
                   x="98.079185"
                   y="0"><tspan
                     x="398.65906"
                     y="179.54393"
                     id="tspan12022"><tspan
                       style="font-style:italic;font-size:21.3333px;-inkscape-font-specification:'sans-serif, Italic';text-align:center;text-anchor:middle"
                       id="tspan12020">Speech-learning, Control </tspan></tspan><tspan
                     x="489.64557"
                     y="206.21055"
                     id="tspan12026"><tspan
   style="font-style:italic;font-size:21.3333px;-inkscape-font-specification:'sans-serif, Italic';text-align:center;text-anchor:middle"
   id="tspan12024">page:</tspan>
</tspan><tspan
                     x="392.60059"
                     y="226.04025"
                     id="tspan12030"><tspan
                       style="font-size:14.6667px"
                       id="tspan12028">A browser running the Control page of </tspan></tspan><tspan
                     x="426.32666"
                     y="244.37363"
                     id="tspan12034"><tspan
                       style="font-size:14.6667px"
                       id="tspan12032">the application. It allows the </tspan></tspan><tspan
                     x="396.45796"
                     y="262.707"
                     id="tspan12038"><tspan
                       style="font-size:14.6667px"
                       id="tspan12036">experimenter to control the robot and </tspan></tspan><tspan
                     x="396.17196"
                     y="281.04038"
                     id="tspan12042"><tspan
                       style="font-size:14.6667px"
                       id="tspan12040">write comments and notes during the </tspan></tspan><tspan
                     x="480.06545"
                     y="299.37375"
                     id="tspan12046"><tspan
                       style="font-size:14.6667px"
                       id="tspan12044">experiment</tspan></tspan></text><rect
                   style="fill:none;fill-opacity:1;stroke:#ccffcc;stroke-width:0.864395;stroke-linecap:round;stroke-miterlimit:4;stroke-dasharray:none;stroke-dashoffset:0"
                   id="rect6801"
                   width="76.824898"
                   height="48.5933"
                   x="83.925896"
                   y="46.643906" /></g><text
                 xml:space="preserve"
                 style="font-size:2.46944px;line-height:1.25;font-family:sans-serif;-inkscape-font-specification:'sans-serif, Normal';fill:#ccffcc;fill-opacity:1;stroke-width:0.264583"
                 x="85.610367"
                 y="45.153374"
                 id="text8411"><tspan
                   sodipodi:role="line"
                   id="tspan8407"
                   style="font-size:3.88056px;fill:#ccffcc;fill-opacity:1;stroke-width:0.264583"
                   x="85.610367"
                   y="45.153374">PC or tablet</tspan><tspan
                   sodipodi:role="line"
                   style="fill:#ccffcc;fill-opacity:1;stroke-width:0.264583"
                   x="85.610367"
                   y="48.798977"
                   id="tspan8409" /></text></g><g
               id="g8459"
               transform="translate(-129.78071,-80.741301)"><g
                 id="g7035"
                 transform="translate(83.667052)"><text
                   xml:space="preserve"
                   transform="matrix(0.26458333,0,0,0.26458333,-14.254262,11.677373)"
                   id="text7031"
                   style="font-size:9.33332px;line-height:1.25;font-family:sans-serif;-inkscape-font-specification:'sans-serif, Normal';white-space:pre;shape-inside:url(#rect7037);display:inline"
                   x="98.079185"
                   y="0"><tspan
                     x="435.74701"
                     y="179.54393"
                     id="tspan12050"><tspan
                       style="font-style:italic;font-size:21.3333px;-inkscape-font-specification:'sans-serif, Italic';text-align:center;text-anchor:middle"
                       id="tspan12048">Speech-learning, </tspan></tspan><tspan
                     x="432.81367"
                     y="206.21055"
                     id="tspan12054"><tspan
   style="font-style:italic;font-size:21.3333px;-inkscape-font-specification:'sans-serif, Italic';text-align:center;text-anchor:middle"
   id="tspan12052">Experiment page:</tspan>
</tspan><tspan
                     x="388.06125"
                     y="226.04025"
                     id="tspan12058"><tspan
                       style="font-size:14.6667px"
                       id="tspan12056">A browser running the main page of the </tspan></tspan><tspan
                     x="383.56592"
                     y="244.37363"
                     id="tspan12062"><tspan
                       style="font-size:14.6667px"
                       id="tspan12060">application. It presents a set of questions </tspan></tspan><tspan
                     x="461.88607"
                     y="262.707"
                     id="tspan12066"><tspan
                       style="font-size:14.6667px"
                       id="tspan12064">to the participant</tspan></tspan></text><rect
                   style="fill:none;fill-opacity:1;stroke:#ccffcc;stroke-width:0.864395;stroke-linecap:round;stroke-miterlimit:4;stroke-dasharray:none;stroke-dashoffset:0"
                   id="rect7033"
                   width="76.824898"
                   height="48.5933"
                   x="83.925896"
                   y="46.643906" /></g><text
                 xml:space="preserve"
                 style="font-size:2.46944px;line-height:1.25;font-family:sans-serif;-inkscape-font-specification:'sans-serif, Normal';fill:#ccffcc;fill-opacity:1;stroke-width:0.264583"
                 x="169.21143"
                 y="45.064121"
                 id="text8417"><tspan
                   sodipodi:role="line"
                   id="tspan8413"
                   style="font-size:3.88056px;fill:#ccffcc;fill-opacity:1;stroke-width:0.264583"
                   x="169.21143"
                   y="45.064121">PC or tablet</tspan><tspan
                   sodipodi:role="line"
                   style="fill:#ccffcc;fill-opacity:1;stroke-width:0.264583"
                   x="169.21143"
                   y="48.709724"
                   id="tspan8415" /></text></g><path
               style="fill:none;stroke:#000000;stroke-width:0.264583px;stroke-linecap:butt;stroke-linejoin:miter;stroke-opacity:1"
               d="m 153.90366,79.510927 h -1.80122 -1.80122 -1.80122 -1.80122 -1.80122 -1.80123"
               id="path8474"
               sodipodi:nodetypes="ccccccc"
               transform="translate(-163.57748,-64.726474)" /><path
               style="fill:none;stroke:#000000;stroke-width:0.264583px;stroke-linecap:butt;stroke-linejoin:miter;stroke-opacity:1"
               d="m 245.20583,79.222379 h -1.80122 -1.80122 -1.80122 -1.80122 -1.80122 -1.80123"
               id="path8478"
               sodipodi:nodetypes="ccccccc"
               transform="translate(-163.57748,-64.726474)" /><path
               style="fill:none;stroke:#000000;stroke-width:0.264583px;stroke-linecap:butt;stroke-linejoin:miter;stroke-opacity:1"
               d="m 190.32824,130.90996 v 1.80122 1.80123 1.80122 1.80122 1.80122 1.80123"
               id="path8480"
               sodipodi:nodetypes="ccccccc"
               transform="translate(-163.57748,-64.726474)" /><path
               style="fill:none;stroke:#000000;stroke-width:0.405694;stroke-linecap:round;stroke-linejoin:miter;stroke-dasharray:none;stroke-dashoffset:0;stroke-opacity:1;marker-end:url(#TriangleStart)"
               d="m 203.74375,97.592297 v 21.975363 m 0,6.27623 v 8.66852 h -13.41551"
               id="path8549"
               sodipodi:nodetypes="ccccc"
               transform="translate(-163.57748,-64.726474)" /><path
               style="fill:none;stroke:#000000;stroke-width:0.405694;stroke-linecap:round;stroke-linejoin:miter;stroke-dasharray:none;stroke-opacity:1"
               d="M 203.74375,97.592297 H 148.5"
               id="path8567"
               sodipodi:nodetypes="cc"
               transform="translate(-163.57748,-64.726474)" /><path
               style="fill:none;stroke:#000000;stroke-width:0.405694;stroke-linecap:round;stroke-linejoin:miter;stroke-dasharray:none;stroke-opacity:1;marker-start:url(#marker8627)"
               d="M 148.5,79.510926 V 97.592297"
               id="path8569"
               transform="translate(-163.57748,-64.726474)" /><path
               style="fill:none;stroke:#000000;stroke-width:0.405694;stroke-linecap:round;stroke-linejoin:miter;stroke-dasharray:none;stroke-dashoffset:0;stroke-opacity:1;marker-end:url(#TriangleStart)"
               d="m 205.07535,97.592297 v 21.975363 m 0,6.27623 v 12.27096 h -14.74711"
               id="path8871"
               sodipodi:nodetypes="ccccc"
               transform="translate(-163.57748,-64.726474)" /><path
               style="fill:none;stroke:#000000;stroke-width:0.405694;stroke-linecap:round;stroke-linejoin:miter;stroke-dasharray:none;stroke-opacity:1"
               d="M 239.80217,97.592297 H 205.07535"
               id="path8915"
               sodipodi:nodetypes="cc"
               transform="translate(-163.57748,-64.726474)" /><path
               style="fill:none;stroke:#000000;stroke-width:0.405694;stroke-linecap:round;stroke-linejoin:miter;stroke-dasharray:none;stroke-opacity:1;marker-start:url(#marker8627)"
               d="M 239.80217,79.510926 V 97.592297"
               id="path8933"
               transform="translate(-163.57748,-64.726474)" /><text
               xml:space="preserve"
               style="font-size:4.93889px;line-height:1.25;font-family:sans-serif;-inkscape-font-specification:'sans-serif, Normal';stroke-width:0.264583"
               x="36.420601"
               y="59.284279"
               id="text9856"><tspan
                 sodipodi:role="line"
                 id="tspan9854"
                 style="font-style:normal;font-variant:normal;font-weight:bold;font-stretch:normal;font-size:4.93889px;font-family:sans-serif;-inkscape-font-specification:'sans-serif, Bold';font-variant-ligatures:normal;font-variant-caps:normal;font-variant-numeric:normal;font-variant-east-asian:normal;stroke-width:0.264583"
                 x="36.420601"
                 y="59.284279">http</tspan></text><text
               xml:space="preserve"
               style="font-size:2.46944px;line-height:1.25;font-family:sans-serif;-inkscape-font-specification:'sans-serif, Normal';fill:#ccffcc;fill-opacity:1;stroke-width:0.264583"
               x="201.94316"
               y="168.29131"
               id="text11042"
               transform="translate(-162.11199,-61.526213)"><tspan
                 sodipodi:role="line"
                 id="tspan11038"
                 style="font-size:3.88056px;fill:#ccffcc;fill-opacity:1;stroke-width:0.264583"
                 x="201.94316"
                 y="168.29131">PC</tspan><tspan
                 sodipodi:role="line"
                 style="fill:#ccffcc;fill-opacity:1;stroke-width:0.264583"
                 x="201.94316"
                 y="171.9369"
                 id="tspan11040" /></text><rect
               style="fill:none;stroke:#ccffcc;stroke-width:0.705556;stroke-dasharray:0.705556, 0.705556;stroke-dashoffset:0"
               id="rect10204"
               width="87.12207"
               height="32.659069"
               x="38.067318"
               y="108.17619" /><g
               id="g10216"
               style="stroke-width:0.705556;stroke-dasharray:none"
               transform="translate(-19.743098,-3.3696858)"><text
                 xml:space="preserve"
                 transform="matrix(0.26458333,0,0,0.26458333,5.7248497,-10.695753)"
                 id="text10210"
                 style="font-size:9.33332px;line-height:1.25;font-family:sans-serif;-inkscape-font-specification:'sans-serif, Normal';white-space:pre;shape-inside:url(#rect10228);display:inline;stroke-width:2.66667;stroke-dasharray:none"
                 x="336.58273"
                 y="0"><tspan
                   x="203.83791"
                   y="531.04393"
                   id="tspan12070"><tspan
   style="font-style:italic;font-size:21.3333px;-inkscape-font-specification:'sans-serif, Italic';text-align:center;text-anchor:middle"
   id="tspan12068">Remote communication via zoom</tspan>
</tspan><tspan
                   x="202.87132"
                   y="550.87363"
                   id="tspan12074"><tspan
                     style="font-size:14.6667px"
                     id="tspan12072">In a subset of experiments, Pepper's movements </tspan></tspan><tspan
                   x="235.95939"
                   y="569.207"
                   id="tspan12078"><tspan
                     style="font-size:14.6667px"
                     id="tspan12076">will be broadcasted from another room</tspan></tspan></text><text
                 xml:space="preserve"
                 transform="matrix(0.26458333,0,0,0.26458333,-0.47010991,-0.28142614)"
                 id="text10214"
                 style="font-size:9.33332px;line-height:1.25;font-family:sans-serif;-inkscape-font-specification:'sans-serif, Normal';white-space:pre;shape-inside:url(#rect10230);display:inline;stroke-width:2.66667;stroke-dasharray:none"
                 x="176.14688"
                 y="0"><tspan
                   x="351.57963"
                   y="459.20696"
                   id="tspan12082"><tspan
                     style="font-size:26.6667px;text-align:center;text-anchor:middle"
                     id="tspan12080">Zoom</tspan></tspan></text></g></g></g><text
           xml:space="preserve"
           style="font-size:2.46944px;line-height:1.25;font-family:sans-serif;-inkscape-font-specification:'sans-serif, Normal';fill:#ccffcc;fill-opacity:1;stroke-width:0.264583"
           x="55.043594"
           y="106.54459"
           id="text10224"><tspan
             sodipodi:role="line"
             id="tspan10220"
             style="font-size:3.88056px;fill:#ccffcc;fill-opacity:1;stroke-width:0.264583"
             x="55.043594"
             y="106.54459" /><tspan
             sodipodi:role="line"
             style="fill:#ccffcc;fill-opacity:1;stroke-width:0.264583"
             x="55.043594"
             y="110.1902"
             id="tspan10222" /></text></g></g></g></svg>
